<?xml version="1.0" standalone="no"?>
<!DOCTYPE svg PUBLIC "-//W3C//DTD SVG 20010904//EN"
 "http://www.w3.org/TR/2001/REC-SVG-20010904/DTD/svg10.dtd">
<svg version="1.0" xmlns="http://www.w3.org/2000/svg"
 width="200.000000pt" height="200.000000pt" viewBox="0 0 200.000000 200.000000"
 preserveAspectRatio="xMidYMid meet">
<metadata>
Created by potrace 1.14, written by Peter Selinger 2001-2017
</metadata>
<g transform="translate(0.000000,200.000000) scale(0.100000,-0.100000)"
fill="#000000" stroke="none">
<path d="M162 1663 c-15 -29 -10 -1317 5 -1334 18 -23 1659 -21 1673 1 15 24
13 1323 -2 1338 -9 9 -209 12 -840 12 -778 0 -828 -1 -836 -17z m1618 -177 c0
-110 -2 -124 -17 -128 -14 -3 -1491 -2 -1528 1 -7 1 -10 46 -9 124 1 67 2 123
3 125 0 1 350 2 776 2 l775 0 0 -124z m-1229 -205 c3 -1 6 -56 6 -124 l0 -122
-166 0 -166 0 -1 115 c0 63 1 120 3 125 2 8 284 13 324 6z m410 -21 c4 -164 3
-220 -6 -223 -5 -2 -80 -3 -165 -3 l-155 1 -3 119 c-1 67 1 122 7 125 5 3 79
6 165 6 l156 0 1 -25z m402 21 c4 0 6 -56 5 -123 l-3 -123 -158 0 c-97 0 -161
4 -165 10 -7 11 -12 201 -6 225 3 13 28 15 161 14 87 -1 162 -2 166 -3z m412
-121 l0 -125 -165 0 -165 0 -1 122 c-1 103 1 122 14 125 9 2 83 3 166 3 l151
0 0 -125z m-1228 -203 c6 -4 10 -54 10 -125 l0 -119 -163 0 c-115 -1 -164 3
-165 11 -1 6 -2 61 -3 121 -1 98 1 111 17 115 26 7 291 5 304 -3z m409 1 c4
-5 7 -128 5 -215 l-1 -31 -165 0 -165 1 0 122 c0 73 4 125 10 127 16 5 310 2
316 -4z m407 3 c4 -1 7 -57 7 -124 l0 -124 -165 0 c-91 -1 -166 2 -166 5 -4
20 -6 219 -3 232 3 13 29 15 161 13 87 0 161 -2 166 -2z m400 0 c15 -1 17 -14
17 -125 l0 -124 -167 2 -168 1 -1 120 c-1 66 2 122 6 125 6 4 233 5 313 1z
m-1207 -448 c2 -105 0 -122 -15 -125 -13 -3 -273 -2 -306 1 -7 1 -11 47 -10
126 l0 125 165 -2 165 -3 1 -122z m405 110 c3 -68 0 -223 -4 -230 -3 -4 -76
-8 -164 -7 l-158 0 -3 127 -3 127 166 0 c150 0 165 -2 166 -17z m409 -108 c0
-104 -3 -125 -15 -126 -8 0 -80 -1 -160 -1 -80 0 -149 1 -153 1 -4 1 -8 57 -8
126 l0 125 168 0 168 0 0 -125z m410 1 c0 -110 -2 -124 -17 -128 -10 -2 -85
-3 -168 -2 l-150 1 -1 126 -1 127 168 0 169 0 0 -124z"/>
<path d="M330 1506 c-16 -16 -12 -44 8 -54 21 -11 162 -10 180 1 6 5 12 17 12
27 0 10 -6 22 -12 27 -19 12 -176 11 -188 -1z"/>
<path d="M600 1506 c-14 -14 -13 -43 3 -53 6 -4 88 -8 180 -8 158 -1 170 0
183 19 12 18 12 22 -1 36 -13 12 -47 15 -185 16 -103 0 -173 -3 -180 -10z"/>
<path d="M1058 1513 c-19 -5 -30 -27 -22 -48 7 -18 -5 -17 193 -19 127 -2 167
1 177 12 16 16 17 22 4 42 -8 12 -39 15 -172 16 -90 0 -170 -1 -180 -3z"/>
<path d="M1495 1508 c-18 -11 -20 -58 -2 -59 54 -5 159 -4 176 3 23 8 28 42 9
55 -17 11 -163 11 -183 1z"/>
<path d="M307 1173 c-13 -12 -7 -41 10 -47 21 -9 46 16 37 37 -6 17 -35 23
-47 10z"/>
<path d="M377 1173 c-13 -12 -7 -44 8 -49 8 -4 22 -1 29 6 11 9 20 9 36 0 26
-14 44 -2 38 26 -4 25 -38 31 -54 10 -10 -15 -12 -15 -18 -1 -6 15 -27 20 -39
8z"/>
<path d="M317 862 c-12 -2 -17 -11 -15 -25 3 -25 37 -35 49 -16 6 11 11 11 21
1 16 -16 45 -16 51 1 4 9 8 9 15 -1 14 -20 46 -10 50 14 4 27 -26 40 -46 20
-14 -13 -17 -13 -27 1 -10 13 -16 13 -34 4 -13 -8 -27 -9 -34 -3 -7 4 -20 7
-30 4z"/>
<path d="M296 524 c-4 -10 -1 -24 7 -31 19 -19 49 -5 45 21 -4 27 -43 34 -52
10z"/>
<path d="M363 524 c-3 -8 2 -23 11 -32 15 -15 17 -15 32 0 21 21 11 48 -16 48
-11 0 -23 -7 -27 -16z"/>
<path d="M437 533 c-13 -12 -7 -41 10 -47 21 -9 46 16 37 37 -6 17 -35 23 -47
10z"/>
</g>
</svg>
